<?xml version="1.0" encoding="UTF-8"?>
<svg width="249px" height="174px" viewBox="0 0 249 174" version="1.1" xmlns="http://www.w3.org/2000/svg" xmlns:xlink="http://www.w3.org/1999/xlink">
    <!-- Generator: sketchtool 40.3 (33839) - http://www.bohemiancoding.com/sketch -->
    <title>C8B8BD0E-AC19-43DE-B26B-BAD4EA4713FB</title>
    <desc>Created with sketchtool.</desc>
    <defs>
        <filter x="-50%" y="-50%" width="200%" height="200%" filterUnits="objectBoundingBox" id="filter-1">
            <feOffset dx="0" dy="0" in="SourceAlpha" result="shadowOffsetOuter1"></feOffset>
            <feGaussianBlur stdDeviation="7.5" in="shadowOffsetOuter1" result="shadowBlurOuter1"></feGaussianBlur>
            <feColorMatrix values="0 0 0 0 0   0 0 0 0 0   0 0 0 0 0  0 0 0 0.25 0" type="matrix" in="shadowBlurOuter1" result="shadowMatrixOuter1"></feColorMatrix>
            <feMerge>
                <feMergeNode in="shadowMatrixOuter1"></feMergeNode>
                <feMergeNode in="SourceGraphic"></feMergeNode>
            </feMerge>
        </filter>
        <polygon id="path-2" points="109.434472 82.5089155 218.868672 82.5089155 218.868672 0.854154796 0.000273007973 0.854154796 0.000273007973 82.5089155 109.434472 82.5089155"></polygon>
    </defs>
    <g id="Symbols" stroke="none" stroke-width="1" fill="none" fill-rule="evenodd">
        <g id="Icon:-TDL" transform="translate(15.000000, 14.000000)">
            <g filter="url(#filter-1)" id="Page-1">
                <g transform="translate(34.909438, 0.917838)">
                    <path d="M0.11488712,96.7964552 C0.11488712,96.7964552 19.4926385,105.029375 31.1344096,108.031529 C31.1344096,108.031529 25.4651517,97.3249273 25.5319754,96.7964552 C25.598516,96.2674151 25.5319754,89.9013277 25.5319754,89.9013277 C25.5319754,89.9013277 23.8996074,90.3500037 22.5781397,89.9013277 C21.2569551,89.4520838 6.53308063,92.4031223 0.11488712,96.7964552" id="Fill-4" fill="#021D2D"></path>
                    <path d="M144.214669,96.7964552 C144.214669,96.7964552 124.836918,105.029375 113.195147,108.031529 C113.195147,108.031529 118.864404,97.3249273 118.797581,96.7964552 C118.73104,96.2674151 118.797581,89.9013277 118.797581,89.9013277 C118.797581,89.9013277 120.429949,90.3500037 121.751133,89.9013277 C123.072884,89.4520838 137.796759,92.4031223 144.214669,96.7964552" id="Fill-6" fill="#021D2D"></path>
                    <path d="M20.7005702,4.94351266 L20.7005702,97.4556276 C42.6763998,123.184495 72.7289103,133.022563 72.7289103,133.022563 C72.7289103,133.022563 102.781139,123.184495 124.756969,97.4556276 L124.756969,4.94351266 C124.756969,4.94351266 95.8317055,15.1598582 72.7289103,15.9164143 C49.6261151,16.6729705 20.7005702,4.94351266 20.7005702,4.94351266" id="Fill-8" fill="#0B3656"></path>
                    <path d="M28.0324574,13.7471724 L28.0324574,93.5413608 C46.9710039,115.732646 72.8697672,124.218903 72.8697672,124.218903 C72.8697672,124.218903 98.7688126,115.732646 117.707077,93.5413608 L117.707077,13.7471724 C117.707077,13.7471724 92.7792248,22.5589279 72.8697672,23.2113452 C52.9600277,23.8640468 28.0324574,13.7471724 28.0324574,13.7471724" id="Fill-10" fill="#FFFFFF"></path>
                    <path d="M31.698401,18.2909968 L31.698401,91.5212824 C49.0885343,111.887411 72.8699083,119.675079 72.8699083,119.675079 C72.8699083,119.675079 96.6510002,111.887411 114.041133,91.5212824 L114.041133,18.2909968 C114.041133,18.2909968 91.1515539,26.3779826 72.8699083,26.9769028 C54.5879805,27.575823 31.698401,18.2909968 31.698401,18.2909968" id="Fill-12" fill="#CD1143"></path>
                    <path d="M72.8697672,29.8245696 L72.8697672,116.551199 C73.7590134,116.254971 95.5083407,108.882193 111.503173,90.2186341 L111.503173,21.6988651 C111.503173,21.6988651 90.0336622,29.2559691 72.8697672,29.8245696" id="Fill-14" fill="#B00F3A"></path>
                    <path d="M66.9198216,127.342782 L66.9198216,108.67309 C66.9161557,108.474948 66.9364593,106.683142 68.5384705,105.231901 L68.5384705,97.9722865 L42.626835,97.9722865 C42.4426925,97.9950288 42.1508281,98.0214667 41.7904391,98.0214667 C38.9563936,98.0214667 35.9283359,96.4002276 35.9283359,91.8512064 L35.9283359,17.2884221 L36.0924567,16.9242616 C36.2252761,16.6288965 37.4688722,14.0311615 40.0446107,14.0311615 C40.2462368,14.0311615 42.0487461,14.0698233 43.2841643,15.40053 C44.0432937,16.2186829 44.4059388,17.317987 44.3337481,18.5830254 L44.3345941,89.6941027 L72.5918605,89.9974276 L100.839821,89.6941027 L100.839821,18.5551662 C100.767912,17.3094587 101.130557,16.2195357 101.890251,15.4010985 C103.125951,14.0698233 104.929024,14.0311615 105.13065,14.0311615 C107.710619,14.0311615 108.951113,16.6303179 109.08365,16.9268201 L109.247207,17.2875693 L109.247207,91.8512064 C109.247207,94.7300926 107.999099,96.2219851 106.952053,96.9665099 C105.727351,97.8383915 104.33599,98.0214667 103.384258,98.0214667 C103.023305,98.0214667 102.731723,97.9950288 102.54758,97.9722865 L76.6362267,97.9722865 L76.6362267,105.23247 C78.2345719,106.682573 78.2582595,108.480918 78.2545935,108.702655 L78.2548755,127.342782 L66.9198216,127.342782 Z" id="Fill-16" fill="#FFFFFF"></path>
                    <polygon id="Fill-18" fill="#FFFFFF" points="72.4470559 107.179562 77.2733367 122.148671 92.891459 122.148671 80.2563992 131.400938 85.0829621 146.370047 72.4470559 137.119202 59.8114317 146.370047 64.6377126 131.400938 52.0020884 122.148671 67.6207751 122.148671"></polygon>
                    <path d="M104.989646,16.0190846 C104.989646,16.0190846 102.358355,16.0190846 102.531782,18.6510165 L102.531782,91.6653781 L72.4463507,91.9880442 L42.3606376,91.6653781 L42.3606376,18.6510165 C42.5340643,16.0190846 39.9036194,16.0190846 39.9036194,16.0190846 C38.435556,16.0190846 37.6203098,17.8288576 37.6203098,17.8288576 L37.6203098,91.9934456 C37.6203098,97.0918542 42.3606376,96.2671367 42.3606376,96.2671367 L70.2304378,96.2671367 L70.2304378,106.301057 C68.5858458,107.288387 68.6117893,108.815863 68.6117893,108.815863 L68.6117893,125.638848 L71.8755938,125.638848 L73.0171076,125.638848 L76.2809122,125.638848 L76.2809122,108.815863 C76.2809122,108.815863 76.3068557,107.288387 74.6622637,106.301057 L74.6622637,96.2671367 L102.531782,96.2671367 C102.531782,96.2671367 107.273238,97.0918542 107.273238,91.9934456 L107.273238,17.8288576 C107.273238,17.8288576 106.45771,16.0190846 104.989646,16.0190846" id="Fill-20" fill="#FFFFFF"></path>
                    <path d="M77.44621,91.7462411 L74.5617412,93.8320775 L103.944524,93.8320775 C103.944524,93.8320775 105.431363,93.2643485 105.28976,91.2063308 L105.28976,18.7016591 C105.28976,18.7016591 103.881368,18.8958224 103.027781,17.4390298 L102.895523,18.5693782 L102.895523,90.0708728 L102.528486,91.4901953 L77.44621,91.7462411 Z" id="Fill-22" fill="#A1B1A8"></path>
                    <path d="M72.5877716,94.0402793 L42.68592,94.0402793 C40.0668996,94.0402793 39.9961152,91.4146936 39.9961152,91.4146936 L39.9961152,19.7433005 C39.3590562,19.601377 38.5804285,18.9374586 38.5804285,18.9374586 C39.9649701,19.337683 40.9870959,18.7018655 40.9870959,18.7018655 C38.5804285,18.9374586 37.8018008,17.4725237 37.8018008,17.4725237 L37.7661255,17.4390298 C37.670142,17.6028095 37.6203098,17.7120907 37.6203098,17.7120907 L37.6203098,91.7624063 C37.6203098,96.8520687 42.3801317,96.0289121 42.3801317,96.0289121 L70.3628783,96.0289121 L70.3628783,106.047296 C68.7116213,107.032813 68.7373868,108.558491 68.7373868,108.558491 L68.7373868,125.354859 L72.0147016,125.354859 L72.5877716,125.354859 L72.5877716,94.0402793 Z" id="Fill-24" fill="#A1B1A8"></path>
                    <path d="M69.1757791,125.07087 L75.9989181,125.07087 L75.9989181,108.674706 C75.9989181,108.617564 75.9851003,107.365549 74.5866896,106.52604 L74.3802696,106.402089 L74.3802696,95.6991245 L102.744687,95.7050946 C102.746379,95.7056632 103.002994,95.7483068 103.38425,95.7483068 C104.008868,95.7483068 104.909277,95.6374335 105.651486,95.1097905 C106.540333,94.4769601 106.991242,93.381305 106.991242,91.852107 L106.991242,17.7867852 C106.828531,17.4734972 106.15259,16.3030737 105.130642,16.3030737 C105.122182,16.3030737 104.122794,16.3175725 103.533989,16.956373 C103.199826,17.3188432 103.052061,17.8317031 103.094924,18.4804537 L103.09577,91.9453542 L72.5918605,92.2725725 L42.0786452,91.9453542 L42.0786452,18.5085985 C42.1226364,17.8291445 41.9737433,17.3148631 41.6367598,16.9521086 C41.0507753,16.3206997 40.0544887,16.3030737 40.0446189,16.3030737 C39.0232348,16.3030737 38.3472939,17.47236 38.1843011,17.7867852 L38.1843011,91.852107 C38.1843011,95.2419856 40.4436411,95.7483068 41.7904468,95.7483068 C42.1717034,95.7483068 42.4280364,95.7056632 42.4305744,95.7050946 L42.501637,95.6991245 L70.7944275,95.6991245 L70.7944275,106.402089 L70.5880075,106.52604 C69.1893148,107.365549 69.1754971,108.617564 69.1757791,108.670442 L69.1757791,125.07087 Z M76.844902,125.922837 L68.3297951,125.922837 L68.3297951,108.674085 C68.3286672,108.611257 68.3216173,107.024943 69.9484437,105.924473 L69.9484437,96.5515723 L42.5340634,96.5515723 C42.4356473,96.5657866 42.1612666,96.6007538 41.7904438,96.6007538 C40.4518158,96.6007538 37.3383141,96.1382209 37.3383141,91.8517606 L37.3383141,17.5949053 L37.3761014,17.511041 C37.4138887,17.4268924 38.323885,15.4511066 40.0446157,15.4511066 C40.1001686,15.4511066 41.4111612,15.4616252 42.2546068,16.3702024 C42.7576851,16.9123353 42.9827167,17.6415282 42.9237798,18.5378811 L42.9246258,91.1012462 L72.5918605,91.419362 L102.249789,91.1012462 L102.249789,18.5094525 C102.191698,17.6418124 102.417012,16.9126195 102.919808,16.3704866 C103.763536,15.4616252 105.075375,15.4511066 105.130645,15.4511066 C106.851376,15.4511066 107.761372,17.4268924 107.79916,17.511041 L107.837229,17.5949053 L107.837229,91.8517606 C107.837229,93.6740321 107.265908,95.0044894 106.139058,95.8058909 C105.21609,96.4631595 104.131257,96.6007538 103.384253,96.6007538 C103.013149,96.6007538 102.738768,96.5657866 102.640352,96.5515723 L75.2262534,96.5515723 L75.2262534,105.924473 C76.8533618,107.024943 76.84603,108.611257 76.844902,108.681476 L76.844902,125.922837 Z" id="Fill-26" fill="#0B3656"></path>
                    <path d="M70.823266,4.97332359 C70.823266,4.97332359 57.3283684,7.98732701 50.9751043,19.5451724 C44.6218402,31.1030178 46.6808625,41.9624619 54.3341456,44.8404205 C61.9874287,47.7180951 81.1166833,49.012935 89.377056,34.9372664 C97.6374288,20.8615978 96.2303926,11.3637379 92.3097227,8.52355378 C88.3887705,5.68336963 76.8354304,1.84912102 70.823266,4.97332359" id="Fill-28" fill="#FFFFFF"></path>
                    <path d="M82.553056,4.98839645 C82.553056,4.98839645 88.2801818,5.7532171 89.1277659,12.1772555 C89.97535,18.6015783 85.4549014,26.5654974 76.6965324,32.8228623 C76.6965324,32.8228623 75.1426282,26.6366038 68.2913233,21.8013672 C68.2913233,21.8013672 76.6821234,28.4142643 75.7003385,39.6490786 C75.7003385,39.6490786 74.3184939,30.560256 70.7043953,27.7097419 L66.523828,32.7253043 C66.523828,32.7253043 65.3228013,37.6108842 58.8560171,41.199483 C54.4881337,43.6233587 48.5499595,38.2730272 49.5659303,32.1061096 C49.5659303,32.1061096 48.1612009,42.919974 49.432577,43.4888253 C50.7039532,44.0576767 52.340073,46.4070328 54.2058882,46.5833767 C56.0719859,46.7597206 60.4511704,48.0396362 64.2652989,47.328572 C68.0794273,46.6175078 76.6846662,46.1627111 82.553056,41.199483 C88.4214458,36.2359705 93.7894784,28.9344789 94.2132705,21.4927654 C94.6370625,14.0507675 95.2357395,10.4513605 92.5347714,8.62477876 C89.834086,6.79791262 86.7144114,4.60100867 82.553056,4.98839645" id="Fill-30" fill="#A1B1A8"></path>
                    <path d="M64.6792,21.6523793 C58.2702657,17.2492244 53.9893606,20.7391091 53.9893606,20.7391091 C52.990144,22.1713542 52.3119529,23.81758 51.9073534,24.9936187 C53.1330102,24.090049 56.2150812,22.4301283 59.961226,24.9696528 C59.961226,24.9696528 55.6292166,22.2349778 51.7026538,25.6204399 C51.5230828,26.199044 51.4380971,26.5630968 51.4380971,26.5630968 C54.9693779,22.5211415 59.8192068,23.8429724 64.5360515,29.7996282 C69.2526138,35.7562839 68.6289151,41.2941078 68.6289151,41.2941078 C68.6289151,41.2941078 70.1693859,41.2093714 71.2171658,41.1517393 C72.264381,41.0941071 73.8359096,40.3568718 73.8359096,40.3568718 C74.7329176,34.5927988 71.9312146,26.6344237 64.6792,21.6523793" id="Fill-32" fill="#0B3656"></path>
                    <path d="M83.9896795,7.14281934 C83.9896795,7.14281934 84.0170503,6.91081191 83.8680632,6.77742189 C83.7193584,6.64403187 82.1987313,5.81034424 82.0085471,5.79666321 C81.8177985,5.78298218 81.2655872,5.89243041 81.2655872,5.89243041 C81.2655872,5.89243041 80.2554099,5.81262441 80.0601466,5.91409203 C79.8657299,6.01527463 79.849646,6.18885268 79.849646,6.18885268 C79.849646,6.18885268 79.3713638,6.13612371 79.0254204,6.23787636 C78.6797592,6.339629 78.3318407,6.57477167 78.438784,6.67566925 C78.5460095,6.77628181 79.0798797,6.66911376 79.4119966,6.75975057 C79.7446779,6.8506724 79.8654477,6.91138196 79.8654477,6.91138196 L79.0742363,7.22262534 C79.0742363,7.22262534 77.9703778,6.85010235 77.4365076,6.95698538 C76.9029196,7.06386841 76.492641,7.40247385 76.5970447,7.48456002 C76.7017307,7.56607614 77.2172597,7.46175831 77.4889917,7.52218284 C77.7610059,7.58260738 78.1165431,7.70801681 78.1165431,7.70801681 L77.1309149,8.27349929 C77.1309149,8.27349929 76.2872194,8.01983023 75.8278428,8.11730756 C75.3684661,8.21449986 74.8399572,8.6636936 74.8399572,8.6636936 C74.8399572,8.6636936 74.8405215,8.81618006 75.0329631,8.8486725 C75.2256869,8.88087992 75.520557,8.82387564 75.9065689,9.04106195 L75.0465074,9.55210535 C75.0465074,9.55210535 73.9291047,9.37168679 73.436996,9.51163231 C72.9448873,9.65100778 72.6161565,10.0363567 72.6161565,10.0363567 C72.6161565,10.0363567 73.4993561,10.3039918 73.8667446,10.5237433 L72.9629464,11.2881708 C72.9629464,11.2881708 71.9663134,11.0162603 71.4902886,11.1345442 C71.0145459,11.2528281 70.9852,11.4663092 70.8274656,11.5629314 C70.6697312,11.6598387 70.4936557,11.9109426 70.5935447,11.9554059 C70.6937159,11.9995842 71.3068765,12.0731197 71.7002249,12.3464553 L70.747893,13.3269289 C70.747893,13.3269289 69.4783994,12.9868984 69.147129,13.2049398 C68.8161407,13.4232662 68.8539518,13.7231087 68.7312068,13.7963592 C68.6084618,13.8693247 68.5576708,14.0665595 68.5576708,14.0665595 C68.5576708,14.0665595 68.919698,13.9434303 69.6584254,14.1152982 C69.6584254,14.1152982 68.7989282,14.9313145 68.4470592,15.2818908 C68.4470592,15.2818908 67.3200626,15.0265116 66.8304935,15.1846985 C66.3409244,15.3431704 66.68066,15.6424429 66.4837036,15.8775856 C66.2870295,16.1124432 66.3962302,16.2315822 66.6775561,16.2144809 C66.9583176,16.1976646 67.2464156,16.2367125 67.5017817,16.3182287 C67.5017817,16.3182287 67.279712,16.6519887 67.3753684,16.8110307 C67.4707427,16.9703577 68.1338479,17.4377928 68.1338479,17.4377928 C68.1338479,17.4377928 67.9842965,17.7051429 68.369744,17.8650399 C68.7551915,18.0252219 69.150515,18.3173689 69.3776638,18.1737181 C69.6050948,18.0297823 69.8598964,17.8066105 69.8598964,17.8066105 C69.8598964,17.8066105 70.5740748,18.3820687 70.7676451,18.718964 C70.9612153,19.0564294 71.6519734,18.7004376 71.705304,18.5222993 C71.7583524,18.3438759 71.279788,17.3947545 70.3912271,16.6326073 C70.3912271,16.6326073 71.011442,15.8664697 71.6813193,15.3420303 C71.6813193,15.3420303 72.5701624,16.1041776 72.9756441,16.6240566 C73.3808437,17.1439357 73.3808437,17.1439357 73.512336,16.8409579 C73.6441105,16.5379802 73.7600834,16.4085805 73.8247009,16.3239291 C73.8896005,16.2398478 73.283212,15.1735827 72.4804316,14.4955167 C72.4804316,14.4955167 72.9694363,14.0323569 73.6325415,13.6039698 C73.6325415,13.6039698 74.5998285,14.0896462 74.9720139,14.498937 C75.3444814,14.9085128 75.4725877,15.0256566 75.6164956,14.9686523 C75.7604036,14.912218 76.1266633,14.6745102 76.060635,14.3017022 C75.9946067,13.9288942 75.5659868,13.221471 74.8004531,12.5385597 C74.8004531,12.5385597 75.1235405,12.249263 75.7369833,11.7316641 C75.7369833,11.7316641 76.608896,12.3629865 77.0417484,12.8027746 C77.4743187,13.2428476 77.5375254,13.2918713 77.6788937,13.2166257 C77.8205443,13.14138 78.160562,12.6970316 78.0646234,12.3852182 C77.9686848,12.0734048 77.3747119,11.2539682 76.8490247,10.825866 C76.8490247,10.825866 77.4475124,10.4821302 77.9114038,10.2700743 C77.9114038,10.2700743 78.4438631,10.6018392 78.8208455,11.0490378 C79.19811,11.4959514 79.3030781,11.730239 79.4816932,11.650148 C79.6600262,11.5697719 79.9080557,11.2901659 79.8657299,10.9527006 C79.8231218,10.6149502 79.3874476,10.0035793 78.9102941,9.51248737 L79.6453532,9.2080845 C79.6453532,9.2080845 80.5336319,9.66554387 80.8764714,10.1363992 C81.2184644,10.6069696 81.2791314,10.6371819 81.4687513,10.4983764 C81.6589355,10.359571 81.7955069,10.0939311 81.6109662,9.67950992 C81.4267076,9.26480376 80.8493829,8.57647705 80.8493829,8.57647705 L81.4865281,8.32280799 C81.4865281,8.32280799 82.2224338,8.99061316 82.4625625,9.39847881 C82.7029734,9.80577441 82.8697373,9.7843978 82.9854279,9.65499808 C83.101683,9.52559836 83.2255567,9.01398492 83.0901139,8.68849047 C82.9549533,8.36271099 82.4518399,7.81746503 82.4518399,7.81746503 L83.2086263,7.5295934 C83.2086263,7.5295934 84.0032238,7.99902367 84.2044127,8.39263824 C84.4047551,8.78625281 84.7735545,8.56707134 84.7052687,8.17573694 C84.636983,7.78411752 84.2577433,7.47059397 83.9896795,7.14281934" id="Fill-34" fill="#0B3656"></path>
                    <path d="M82.7991899,39.7090476 C72.5008565,47.9058966 56.9855874,44.7985441 55.3902583,44.1737131 C53.1704362,43.303962 51.1815095,41.8728882 50.468733,39.0551679 C49.1427819,33.8161563 49.3940505,27.7267593 53.3320064,19.6668947 C59.9872283,6.0456352 74.0030917,4.85891191 79.3824465,4.94776664 C87.8030566,5.08731414 91.8352382,8.8365851 93.0723398,15.0242349 C94.3105733,21.2124544 92.9619854,31.6204192 82.7991899,39.7090476 M97.210598,14.0239877 C95.9916989,7.92590607 91.8950004,0.612927778 79.3001803,0.404521686 C79.1123749,0.401394173 78.9146851,0.399688257 78.7088052,0.399688257 C72.3813181,0.399688257 56.8468499,2.07347634 49.2741991,17.5765582 C45.2997859,25.7132096 44.2915677,32.8334194 46.1004298,39.9843357 C47.0648738,43.7973426 49.6162025,46.5390342 53.6840947,48.1332129 C55.163662,48.7132244 59.4682173,49.5295053 64.4050976,49.5297896 L64.4062272,49.5297896 C70.2411843,49.5297896 78.6153262,48.4001887 85.3706707,43.0217194 C96.5895695,34.0898267 98.8426689,22.1856593 97.210598,14.0239877" id="Fill-36" fill="#0B3656"></path>
                    <polygon id="Fill-38" fill="#0B3656" points="72.5880537 109.451474 76.9149201 122.901981 90.9174894 122.901981 79.5894794 131.215606 83.916628 144.666113 72.5880537 136.353627 61.2594794 144.666113 65.586628 131.215606 54.2580537 122.901981 68.2609051 122.901981"></polygon>
                    <polygon id="Fill-40" fill="#FFFFFF" points="72.5877716 114.563276 75.5833819 123.892317 85.2775762 123.892317 77.4347281 129.657292 80.4303385 138.986332 72.5877716 133.220789 64.7449235 138.986332 67.7405338 129.657292 59.8979669 123.892317 69.5921612 123.892317"></polygon>
                    <polygon id="Fill-42" fill="#0B3656" points="72.5877716 128.194749 72.5877716 116.551199 74.8437368 124.00088"></polygon>
                    <polygon id="Fill-44" fill="#0B3656" points="72.5877716 128.465185 84.1495936 124.502892 75.2279997 129.898684"></polygon>
                    <polygon id="Fill-46" fill="#0B3656" points="72.5877716 128.194749 72.5877716 132.218203 79.0736717 137.282398"></polygon>
                    <polygon id="Fill-48" fill="#0B3656" points="68.3814941 129.620386 65.8198757 136.998409 72.3057759 128.194749"></polygon>
                    <polygon id="Fill-50" fill="#0B3656" points="72.5877716 128.478739 61.5899408 124.502892 69.6184189 124.502892"></polygon>
                </g>
                <g transform="translate(0.000000, 41.255754)">
                    <g id="Group-3" transform="translate(0.000000, 0.083822)">
                        <mask id="mask-3" fill="white">
                            <use xlink:href="#path-2"></use>
                        </mask>
                        <g id="Clip-2"></g>
                        <path d="M225.568676,84.5126084 C149.673736,61.0915495 70.9213283,61.0925371 -4.97265341,84.5126084 L-4.97265341,16.0695882 C70.9184526,-7.35344593 149.67757,-7.35344593 225.568676,16.0695882 L225.568676,84.5126084 Z" id="Fill-1" fill="#0B3656" mask="url(#mask-3)"></path>
                    </g>
                    <path d="M18.1253633,23.9138965 L18.1253633,35.7361115 C16.4145134,36.1599073 15.5599984,36.3764932 13.8527886,36.819041 L13.8527886,24.9958884 C11.3493055,25.6456461 10.099839,25.9803698 7.60545611,26.6732572 C7.05215995,25.3202985 6.77460185,24.6433503 6.22221572,23.2932044 L6.22221572,23.1197482 C12.8490292,21.2511088 19.5240742,19.5662392 26.2382503,18.0651395 C26.640482,17.9751298 26.8425079,18.1476484 26.8425079,18.5798827 L26.8425079,22.6725124 C25.2499614,23.6410545 24.4545982,24.1286072 22.8647818,25.1149638 C22.7974398,25.130903 22.7646788,25.1393414 22.6982469,25.1543431 L22.6982469,23.0531785 C22.6982469,22.8947239 22.6218047,22.8337798 22.4689202,22.8694087 C20.7298594,23.2763276 19.860784,23.4854127 18.1253633,23.9138965" id="Fill-4" fill="#FFFFFF"></path>
                    <path d="M31.9975355,25.9410843 C31.9975355,26.4895811 32.050317,26.9180649 32.15406,27.2293485 C32.2587131,27.5396946 32.426158,27.7619061 32.6554847,27.8950455 C32.8857214,28.0291224 33.1842101,28.0900665 33.5536809,28.0788153 C33.9231517,28.0703769 34.379985,28.0094328 34.9241809,27.9016087 C37.0654735,27.4759377 38.1374848,27.270603 40.2833275,26.8758728 C40.7447109,26.7905511 41.125102,26.6714757 41.4254108,26.5167715 C41.7257196,26.3611297 41.9605064,26.1492318 42.1279513,25.8820154 C42.2953962,25.6129239 42.4109696,25.2706994 42.4746714,24.855342 C42.5365533,24.4399846 42.5674942,23.9364927 42.5674942,23.3458039 L42.5674942,21.2662042 C42.5674942,20.2995372 42.3936791,19.6666563 42.0442289,19.3675615 C41.6947787,19.0694043 41.1078115,18.9943962 40.2833275,19.14535 C37.8772172,19.5878978 36.6768921,19.8194853 34.276242,20.3004748 C33.8157686,20.3932973 33.4353775,20.5217487 33.1359787,20.6839538 C32.83658,20.8461588 32.6036132,21.0627447 32.4361683,21.3355867 C32.2696334,21.6084286 32.15406,21.9497155 32.0921782,22.3603849 C32.0293864,22.7691791 31.9975355,23.2698582 31.9975355,23.8624222 L31.9975355,25.9410843 Z M46.8919405,23.5567642 C46.8919405,24.5093671 46.7800072,25.3907123 46.5561406,26.1998623 C46.3313641,27.0099498 45.9746337,27.7253396 45.4850394,28.3497821 C44.9954451,28.9742246 44.3547864,29.5030317 43.5648833,29.9371411 C42.7740702,30.3712505 41.8130821,30.6890974 40.6810091,30.8953697 C37.9654898,31.3922983 36.6077301,31.6520139 33.898581,32.1995731 C32.770148,32.4274102 31.8082499,32.4789783 31.0156168,32.3495893 C30.2220736,32.2192627 29.5823249,31.9379823 29.0954607,31.5019977 C28.6085965,31.0650755 28.2536861,30.4856379 28.0316396,29.7618097 C27.8086831,29.0389191 27.6976599,28.2007035 27.6976599,27.2481005 L27.6976599,24.0002496 C27.6976599,23.0467091 27.8086831,22.1606758 28.0316396,21.3393371 C28.2536861,20.5189359 28.6085965,19.7838565 29.0954607,19.1369116 C29.5823249,18.4909043 30.2220736,17.9367819 31.0156168,17.4745445 C31.80916,17.0113694 32.770148,16.6635193 33.898581,16.4356822 C36.6077301,15.8890606 37.9654898,15.6284075 40.6810091,15.1324164 C41.8130821,14.9252065 42.7740702,14.9036417 43.5648833,15.0611587 C44.3547864,15.2186757 44.9954451,15.5280841 45.4850394,15.9865712 C45.9746337,16.4441206 46.3313641,17.0423103 46.5561406,17.7773897 C46.7800072,18.5124691 46.8919405,19.3563103 46.8919405,20.3079756 L46.8919405,23.5567642 L46.8919405,23.5567642 Z" id="Fill-6" fill="#FFFFFF"></path>
                    <path d="M48.5939632,13.7733633 C50.3257437,13.4939581 51.191179,13.3617563 52.9247796,13.1029783 L52.9247796,22.3477273 C52.9247796,23.2440741 53.1040549,23.844139 53.4616953,24.1526098 C53.8193358,24.460143 54.3981127,24.556716 55.198026,24.4423286 C57.5140437,24.112293 58.6734175,23.9557135 60.9921652,23.6622443 C61.8075491,23.5600458 62.3945162,23.303143 62.7539767,22.8924736 C63.1125272,22.4799291 63.2908924,21.8189201 63.2908924,20.9094469 L63.2908924,11.7078276 C65.0299532,11.4978049 65.8999386,11.3993568 67.6399094,11.2099613 L67.6399094,20.7144258 C67.6399094,21.697032 67.5270661,22.585878 67.3022895,23.3828391 C67.0766029,24.1807379 66.7171424,24.876438 66.2248181,25.4718149 C65.7324937,26.0690669 65.0881949,26.5547444 64.2937417,26.9297849 C63.4983784,27.3048254 62.52465,27.5626658 61.3716463,27.7070564 C58.7489497,28.037092 57.4385115,28.2133611 54.819455,28.5893392 C53.6828318,28.7534195 52.7182036,28.7552947 51.9264805,28.5940272 C51.1329373,28.4327598 50.4922786,28.1205386 50.0017743,27.6564259 C49.5112699,27.1932509 49.1545395,26.593186 48.930673,25.8562314 C48.7058964,25.1202144 48.5939632,24.260434 48.5939632,23.2787654 L48.5939632,13.7733633 Z" id="Fill-8" fill="#FFFFFF"></path>
                    <path d="M83.6908671,16.0935515 C83.6226152,16.0982395 83.5889442,16.1010523 83.5216022,16.1057403 L83.5216022,13.9830109 C83.5216022,13.8395579 83.4579003,13.7692378 83.3304966,13.7786138 C80.3838306,13.9736349 78.9104975,14.0861471 75.9665616,14.340237 C75.1202368,14.4124323 74.5250795,14.6477703 74.1792694,15.0406252 C73.8343693,15.4325426 73.6614642,16.1123035 73.6614642,17.0799081 L73.6614642,19.7201934 C73.6614642,20.6587323 73.8307292,21.3047396 74.1692591,21.6563401 C74.507789,22.0079406 75.1056764,22.1438928 75.9665616,22.0698223 C80.5767562,21.6722793 82.8845836,21.5100743 87.5029685,21.2559843 L87.5029685,25.348614 C82.7316991,25.6111424 80.3483395,25.7808483 75.5852604,26.195268 C74.4431771,26.2946538 73.4703587,26.2365225 72.6677152,26.0171238 C71.8650718,25.7977251 71.2162228,25.4433118 70.7238985,24.9510711 C70.229754,24.459768 69.8712035,23.8400135 69.645517,23.0908701 C69.4207404,22.3417266 69.3078971,21.4903846 69.3078971,20.5377817 L69.3078971,17.2889932 C69.3078971,16.3373278 69.4207404,15.4634834 69.645517,14.6683975 C69.8712035,13.872374 70.229754,13.178549 70.7238985,12.5878602 C71.2162228,11.9971714 71.8650718,11.5133691 72.6686252,11.1411414 C73.4712687,10.7689136 74.4431771,10.5317005 75.5852604,10.4323148 C80.1963651,10.0300838 82.5032825,9.86506597 87.1216673,9.60628801 C87.5311793,9.58378558 87.7359353,9.78818266 87.7359353,10.2213545 L87.7359353,14.3139842 C86.117908,15.0171852 85.3079844,15.3725361 83.6908671,16.0935515" id="Fill-10" fill="#FFFFFF"></path>
                    <path d="M93.9650672,15.5642755 C93.9059155,15.5661508 93.8758846,15.568026 93.8167329,15.5699012 L93.8167329,25.0528008 C92.0703919,25.1193705 91.1976764,25.1578122 89.4513354,25.2459467 C89.4522454,19.9916289 89.4513354,14.7363736 89.4513354,9.48299344 C91.1967664,9.39579651 92.0703919,9.35641726 93.8167329,9.28984757 L93.8167329,15.1357917 C97.9364232,14.9782747 99.9976334,14.9285819 104.120054,14.8845146 L104.120054,9.03763281 C105.875495,9.01981839 106.753671,9.01513038 108.510022,9.01700558 L108.510022,24.7799588 C106.753671,24.7780836 105.875495,24.7827717 104.120054,24.8024613 L104.120054,18.7389936 C100.57459,18.7764976 98.8018585,18.8168145 95.2573049,18.9387027 C94.7404098,17.5876192 94.4819623,16.9134838 93.9650672,15.5642755" id="Fill-12" fill="#FFFFFF"></path>
                    <path d="M114.849085,20.7477106 C117.809402,20.8002163 119.288195,20.8414708 122.247601,20.9530453 C123.081186,20.9839862 123.675433,20.8217811 124.027613,20.4608046 C124.380703,20.1017033 124.557249,19.4444448 124.557249,18.4918419 L124.557249,15.8496814 C124.557249,14.8689504 124.380703,14.1938775 124.027613,13.8254002 C123.675433,13.4569228 123.081186,13.254401 122.247601,13.2234601 C119.416508,13.115636 117.999597,13.0753191 115.167594,13.0228134 C115.068402,13.0209382 114.990139,13.0528167 114.934628,13.115636 C114.878206,13.1803305 114.849085,13.2553386 114.849085,13.3425355 L114.849085,20.7477106 Z M110.480958,9.67276394 C110.480958,9.24052974 110.678433,9.02488143 111.074295,9.02769424 C115.70542,9.06426069 118.021438,9.11864157 122.650743,9.29772342 C123.794646,9.34179068 124.769285,9.53212374 125.574658,9.86590981 C126.379122,10.1987583 127.029791,10.6506821 127.524845,11.2179309 C128.01899,11.7842421 128.37936,12.4621278 128.605047,13.2459625 C128.830733,14.0297972 128.943577,14.8998913 128.943577,15.8515566 L128.943577,19.1003451 C128.943577,20.0529481 128.830733,20.9099157 128.605047,21.6684351 C128.37936,22.4288298 128.01899,23.0663987 127.524845,23.5811418 C127.029791,24.0977601 126.379122,24.4831143 125.574658,24.7418922 C124.769285,24.9997326 123.794646,25.1047439 122.650743,25.0616143 C120.15727,24.9641037 118.911444,24.9265997 116.417971,24.8712812 C115.859215,23.3870583 115.578926,22.6444781 115.01926,21.1621304 C114.951918,21.1611928 114.917337,21.1593176 114.849085,21.15838 L114.849085,24.8394028 C113.102744,24.8093995 112.228209,24.7981483 110.480958,24.7878347 L110.480958,9.67276394 Z" id="Fill-14" fill="#FFFFFF"></path>
                    <path d="M134.872764,19.0867499 C134.872764,19.6361843 134.925545,20.0806073 135.031109,20.4190814 C135.136672,20.7575555 135.307757,21.0275846 135.538903,21.2244809 C135.77187,21.4232524 136.075819,21.567643 136.44893,21.6604655 C136.822951,21.7532881 137.284334,21.8217329 137.8349,21.8658002 C140.001674,22.0373813 141.085515,22.1311414 143.250469,22.3346009 C143.714582,22.3786681 144.099523,22.3655417 144.402562,22.294284 C144.703781,22.2239639 144.940388,22.0758229 145.108743,21.854549 C145.278918,21.6332751 145.394491,21.3229291 145.458193,20.9253861 C145.520985,20.5278431 145.552836,20.0327896 145.552836,19.4411632 L145.552836,17.3615635 C145.552836,16.3958342 145.377201,15.7123228 145.02502,15.3175926 C144.67284,14.9219249 144.081323,14.6837742 143.250469,14.6050156 C140.823428,14.3771785 139.609452,14.2721672 137.179681,14.0837093 C136.713748,14.0471429 136.328806,14.0687077 136.026678,14.1465286 C135.722729,14.2252871 135.486122,14.3790537 135.315947,14.6050156 C135.147592,14.8291024 135.031109,15.1394484 134.968317,15.5313657 C134.904615,15.9232831 134.872764,16.4164614 134.872764,17.0080878 L134.872764,19.0867499 Z M149.904583,20.8560036 C149.904583,21.8076689 149.79083,22.6590109 149.566053,23.4053416 C149.340366,24.1526098 148.981816,24.7695515 148.489492,25.2571042 C147.996257,25.7455944 147.351958,26.0962573 146.556595,26.3090928 C145.762142,26.5238035 144.792054,26.574434 143.65088,26.4656722 C140.9117,26.2059567 139.5412,26.0878189 136.79747,25.8768586 C135.655387,25.7896617 134.682568,25.5721382 133.878105,25.2205377 C133.073641,24.8698748 132.423882,24.408575 131.929738,23.8357006 C131.435594,23.2628262 131.075223,22.5840028 130.849536,21.7982929 C130.62294,21.012583 130.510096,20.142489 130.510096,19.1898861 L130.510096,15.9420351 C130.510096,14.9894322 130.62294,14.1334022 130.849536,13.3758203 C131.075223,12.6173009 131.435594,11.9825448 131.929738,11.4724897 C132.423882,10.9624345 133.073641,10.5864564 133.878105,10.3454929 C134.682568,10.1045293 135.655387,10.0257708 136.79747,10.1139054 C139.5412,10.3239281 140.9117,10.4420658 143.65088,10.702719 C144.792054,10.8105431 145.761232,11.0561947 146.556595,11.434048 C147.352868,11.8119013 147.996257,12.299454 148.489492,12.8948309 C148.981816,13.4883325 149.340366,14.1849703 149.566053,14.982869 C149.79083,15.7807677 149.904583,16.6546121 149.904583,17.6081526 L149.904583,20.8560036 Z" id="Fill-16" fill="#FFFFFF"></path>
                    <path d="M175.804394,15.1705768 L175.804394,15.3449706 C175.070003,20.2054958 174.338341,25.0688338 173.60395,29.9302966 C173.574829,30.1421945 173.515677,30.2865851 173.425585,30.364406 C173.333672,30.4431645 173.169867,30.4619166 172.93235,30.4206621 C170.422497,29.9809271 169.16757,29.7709044 166.653167,29.374299 C166.120801,29.2899149 165.812302,29.0236362 165.72858,28.5782755 C164.786703,23.9887171 164.315309,21.6953443 163.372521,17.1114115 C163.34431,16.9792097 163.267868,16.9013888 163.141374,16.8826368 C163.065842,16.8713855 163.028531,16.8666975 162.952089,16.8554463 C162.797384,16.8329439 162.704562,16.8835744 162.678171,17.0092129 C161.852777,21.331555 161.440535,23.4936636 160.616051,27.8197561 C160.531418,28.2407391 160.222009,28.4141953 159.688734,28.3410624 C157.245312,28.0025883 156.023147,27.8422585 153.576085,27.5422261 C153.350399,27.5150356 153.188414,27.4456531 153.091041,27.333141 C152.992758,27.2206288 152.928146,27.0612366 152.900845,26.8549643 C152.092742,21.7656644 151.285548,16.6754269 150.473805,11.5880021 L150.473805,11.4145459 C152.212865,11.6114422 153.081941,11.7155159 154.820091,11.933977 C155.545383,16.7963774 155.908483,19.2303904 156.633774,24.0974789 C156.661985,24.2878119 156.766638,24.3956361 156.949554,24.4190761 C157.033276,24.4303273 157.076957,24.4359529 157.16068,24.4481417 C157.329035,24.4697066 157.434598,24.3890729 157.476459,24.2081158 C158.353725,19.7760744 158.792357,17.5623977 159.668713,13.1359819 C159.696014,12.9390856 159.769726,12.8050086 159.888939,12.7346885 C160.007243,12.6653061 160.201079,12.6484292 160.468626,12.6859333 C162.590808,12.9840905 163.650989,13.1425451 165.770441,13.4716432 C166.217264,13.5410257 166.484812,13.770738 166.569445,14.1598425 C167.544993,18.8609755 168.032767,21.2124796 169.007406,25.9201758 C169.049267,26.1151969 169.14664,26.2239586 169.301344,26.2492739 C169.393257,26.2652131 169.439668,26.2727139 169.531581,26.2877155 C169.756358,26.3252196 169.873751,26.2502115 169.888311,26.065504 C170.484379,21.3924991 170.782868,19.0578718 171.378935,14.3867421 C173.150757,14.6895873 174.036213,14.8461667 175.804394,15.1705768" id="Fill-18" fill="#FFFFFF"></path>
                    <path d="M184.090641,16.7867201 C184.411881,16.8523522 184.637567,16.9508004 184.769521,17.0792517 C184.902385,17.2077031 185.023419,17.3924106 185.134442,17.6314989 C187.061878,21.8207016 188.980214,26.0145923 190.89309,30.2103581 C190.989553,30.4044416 191.122417,30.5207042 191.287131,30.5591458 C191.379954,30.579773 191.425455,30.5910243 191.517368,30.6116515 C191.738505,30.662282 191.849528,30.5722722 191.849528,30.3416223 L191.849528,18.4762777 C193.407493,18.8325662 194.185566,19.0144609 195.740802,19.3876262 L195.740802,34.5223866 C195.740802,34.9414944 195.546056,35.1036994 195.158384,35.0118145 C192.696763,34.424876 191.464587,34.1417204 188.995685,33.5979117 C188.703566,33.5332172 188.48516,33.4432075 188.339555,33.3241321 C188.193041,33.2059943 188.057447,33.0100357 187.931863,32.7371937 C185.948006,28.5489286 183.958687,24.3644139 181.957539,20.1855249 C181.874727,19.9951918 181.742773,19.8826797 181.562587,19.8461132 C181.478865,19.8292364 181.437004,19.820798 181.352371,19.8048588 C181.129415,19.7598539 181.016571,19.8526764 181.016571,20.084264 L181.016571,31.9280437 C179.452236,31.6176977 178.669613,31.4676815 177.102547,31.1751499 L177.102547,16.0619543 C177.102547,15.6287825 177.299113,15.4478255 177.691334,15.5209584 C180.253969,16.0056982 181.533467,16.257913 184.090641,16.7867201" id="Fill-20" fill="#FFFFFF"></path>
                    <path d="M210.052152,76.5010476 C209.056583,76.2216424 208.558799,76.0828774 207.56323,75.8100354 L207.56323,72.965353 C208.558799,73.238195 209.056583,73.3760224 210.052152,73.6563652 L210.052152,76.5010476 Z" id="Fill-22" fill="#FFFFFF"></path>
                    <path d="M203.479303,60.3658666 L203.479303,60.4905676 C202.890516,60.3368009 202.595668,60.2599176 202.00688,60.1080262 C201.905868,60.0817734 201.856726,60.115527 201.856726,60.2111624 L201.856726,65.6792532 C201.856726,66.3083837 201.98231,66.7818724 202.232567,67.1034696 C202.482824,67.4250669 202.945118,67.6735312 203.615807,67.8498003 C204.349289,68.0438837 204.71421,68.1413943 205.447691,68.3373529 C206.09836,68.5126844 206.557013,68.5098716 206.820921,68.3307897 C207.085739,68.1517079 207.219513,67.7419761 207.219513,67.1034696 L207.219513,58.5394192 C208.354316,58.8488277 208.919442,59.0072823 210.052425,59.3260667 L210.052425,68.1732727 C210.052425,69.0218019 209.948682,69.7146893 209.744836,70.25381 C209.53917,70.7938684 209.249782,71.1960993 208.875761,71.4576901 C208.50083,71.7192809 208.046727,71.8599211 207.512541,71.8805483 C206.978356,71.9021131 206.379558,71.8242922 205.717969,71.646148 C204.817953,71.4042468 204.366579,71.2851715 203.464743,71.0488959 C202.803154,70.8754397 202.205266,70.6344762 201.668351,70.3288181 C201.132345,70.0231601 200.675512,69.6406188 200.298761,69.1774437 C199.92292,68.7161439 199.630801,68.1610839 199.425135,67.5122638 C199.219469,66.8643813 199.116636,66.1161754 199.116636,65.2676462 L199.116636,56.7026583 C199.116636,56.3988754 199.267701,56.2835505 199.568009,56.3604338 C200.706453,56.6454646 201.276129,56.7907928 202.412752,57.0851996 C202.839555,58.3969038 203.052501,59.0541624 203.479303,60.3658666" id="Fill-24" fill="#FFFFFF"></path>
                    <path d="M205.447782,53.5179079 C205.828173,53.6201064 206.133942,53.6622985 206.363269,53.6472969 C206.593505,53.6313576 206.771871,53.5525991 206.896544,53.4147717 C207.022128,53.2750691 207.10585,53.0725473 207.150442,52.8072061 C207.195943,52.5428025 207.218694,52.205266 207.218694,51.7974095 C207.218694,50.1884856 207.219604,49.3830861 207.219604,47.7732246 C207.219604,47.4272498 207.183203,47.1319053 207.113131,46.8890666 C207.043969,46.6452903 206.926575,46.4362052 206.76095,46.2674369 C206.597146,46.0967935 206.374189,45.9486525 206.092991,45.8258267 C205.812703,45.7039385 205.468713,45.5867384 205.057381,45.477039 C204.481334,45.3232724 204.192855,45.2463891 203.615898,45.0944977 C202.945209,44.917291 202.482915,44.9304175 202.232658,45.1282513 C201.981491,45.3251476 201.856817,45.731129 201.856817,46.3499458 L201.856817,50.8598082 C201.856817,51.2048454 201.891398,51.5020651 201.96147,51.7439662 C202.031542,51.9886801 202.149846,52.1930772 202.31456,52.3618455 C202.479275,52.5287385 202.701322,52.6750043 202.97524,52.7931421 C203.251888,52.9122174 203.595878,53.0256672 204.0063,53.1334913 C204.584167,53.2863204 204.870825,53.3632037 205.447782,53.5179079 M205.71806,42.4157707 C206.378739,42.593915 206.977537,42.8405041 207.512632,43.1546006 C208.047728,43.468697 208.500921,43.8624896 208.875852,44.3331654 C209.249873,44.8038413 209.539261,45.3645269 209.744927,46.0142846 C209.948773,46.6640423 210.052516,47.4141233 210.052516,48.2617149 L210.052516,53.3538277 C210.052516,54.2023568 209.948773,54.8961818 209.744927,55.434365 C209.539261,55.9753609 209.248963,56.3766543 208.875852,56.638245 C208.500921,56.8998358 208.045908,57.0414136 207.512632,57.0620408 C206.978447,57.0836057 206.378739,57.0048472 205.71806,56.8267029 C204.818044,56.5838642 204.36667,56.4657264 203.464834,56.2294509 C202.803245,56.055057 202.205357,55.8150311 201.668442,55.5093731 C201.132436,55.2046526 200.675603,54.8202361 200.298852,54.3579987 C199.923921,53.8966988 199.630892,53.3416388 199.425226,52.6928187 C199.21956,52.0449362 199.116727,51.2967304 199.116727,50.4482012 L199.116727,45.3560885 C199.116727,44.5084969 199.21865,43.8127967 199.425226,43.2727383 C199.630892,42.7317424 199.923921,42.325761 200.298852,42.0547942 C200.675603,41.7838275 201.131526,41.6309984 201.668442,41.6019328 C202.205357,41.5728672 202.803245,41.6441249 203.464834,41.8166435 C204.36667,42.052919 204.818044,42.172932 205.71806,42.4157707" id="Fill-26" fill="#FFFFFF"></path>
                    <path d="M210.052152,26.6544114 C206.774237,25.7308741 205.133459,25.2883263 201.840983,24.4397971 C201.680818,24.3985426 201.600736,24.4557363 201.600736,24.6132533 L201.600736,24.785772 C201.600736,24.9217242 201.666258,25.0332987 201.796391,25.1186204 C204.966924,27.1860313 206.54946,28.23802 209.707252,30.375751 C209.847396,30.4676359 209.939309,30.5670217 209.98481,30.6739082 C210.029402,30.7807948 210.052152,30.9186222 210.052152,31.0864528 L210.052152,34.8096676 C210.052152,34.9887495 210.029402,35.1153256 209.98481,35.1912713 C209.939309,35.2690923 209.847396,35.3122219 209.707252,35.3253483 C206.54946,35.683512 204.966924,35.8804083 201.796391,36.3079545 C201.666258,36.3267065 201.600736,36.4092154 201.600736,36.5564189 L201.600736,36.7139359 C201.600736,36.8808289 201.680818,36.9849027 201.840983,37.0270947 C205.133459,37.8756239 206.774237,38.3172341 210.052152,39.241709 L210.052152,42.2748493 C205.86967,41.0962844 203.773879,40.537474 199.567736,39.4826726 C199.267427,39.4067268 199.116363,39.2220194 199.116363,38.9294878 L199.116363,33.7586165 C199.116363,33.4238929 199.252867,33.2373102 199.524055,33.1998062 C202.655456,32.8613321 204.218882,32.7094407 207.338453,32.4384739 C207.399425,32.4450371 207.428546,32.3990946 207.428546,32.3043969 L207.428546,32.0231165 C207.428546,31.9593596 207.399425,31.9096668 207.338453,31.8721627 C204.218882,29.8863231 202.655456,28.9102802 199.524055,26.9928855 C199.393011,26.9085013 199.291998,26.8072404 199.221926,26.6900402 C199.150944,26.5728401 199.116363,26.4256367 199.116363,26.2465548 L199.116363,21.1394405 C199.116363,20.8469089 199.267427,20.7372095 199.567736,20.8131552 C203.773879,21.8679567 205.86967,22.4267671 210.052152,23.6053319 L210.052152,26.6544114 Z" id="Fill-28" fill="#FFFFFF"></path>
                    <path d="M24.3062639,69.3958111 C23.6901759,69.3958111 23.1933013,69.205478 22.8292907,68.8313751 C22.3569869,68.3485104 22.1167399,67.6162438 22.1167399,66.65614 L22.1167399,39.1075383 L22.7837894,38.9528341 C25.9515919,38.2149418 27.5095574,37.8699045 30.7237713,37.193894 L31.7502812,36.9782457 L31.7511913,58.469943 C39.0323139,57.0072849 46.43083,55.7012063 53.7465336,54.5826479 L54.7284523,54.4326317 L54.7284523,63.8048944 L53.998611,63.9174066 C44.3887303,65.3922535 34.6951273,67.1999488 25.1862596,69.2870493 C24.8723004,69.358307 24.5738117,69.3958111 24.3062639,69.3958111" id="Fill-30" fill="#0B3656"></path>
                    <path d="M30.8946743,38.0585499 L30.8946743,58.5882683 C30.8946743,58.9079903 30.9583761,59.1358274 31.0875999,59.2689668 C31.2150036,59.4011686 31.4598008,59.428359 31.8192613,59.3542885 C39.1486153,57.8822545 46.4861596,56.5836767 53.8719353,55.4557423 L53.8719353,63.0446873 C44.1856124,64.531723 34.5866521,66.3206663 25.0086224,68.423706 C24.2651306,68.5924743 23.7409553,68.5221542 23.4333664,68.2061825 C23.1257774,67.8920861 22.9728929,67.3754678 22.9728929,66.6563276 L22.9728929,39.812802 C26.1361453,39.0758473 27.7205016,38.7261221 30.8946743,38.0585499" id="Fill-32" fill="#FFFFFF"></path>
                    <path d="M79.3451262,39.3037782 C79.1412803,39.3037782 78.927424,39.3131542 78.7026475,39.3300311 C74.2153064,39.6844444 72.0239624,39.8907166 67.5357113,40.3801445 C66.7740191,40.463591 66.1442807,40.6145449 65.6646967,40.8292556 C65.2570048,41.0130254 64.9503258,41.2671154 64.7291894,41.6046518 C64.4889424,41.9721916 64.3178574,42.4700579 64.2213946,43.0869995 C64.1131014,43.7798869 64.0584998,44.6612321 64.0584998,45.7019696 L64.0575898,49.5367589 C64.0575898,50.4481074 64.1404022,51.1606844 64.304207,51.6548003 C64.4352508,52.0523433 64.6263564,52.3298733 64.8893541,52.5023919 C65.1905729,52.7011634 65.6155553,52.8193011 66.153381,52.8521172 C66.3281061,52.8633684 66.5146615,52.868994 66.7121373,52.868994 C67.2363126,52.868994 67.8605908,52.8305524 68.5658614,52.7564819 C72.5790786,52.3317485 74.543826,52.1498538 78.5716036,51.832007 C79.3423962,51.7710629 79.9748646,51.6416739 80.4517185,51.448528 C80.8548603,51.2844478 81.1560791,51.0509851 81.3717554,50.7322006 C81.6074523,50.3843505 81.7758072,49.893985 81.87227,49.2761058 C81.9823832,48.5710296 82.0378949,47.685934 82.0378949,46.6470717 L82.0369848,42.8122823 C82.0369848,40.8189419 81.597442,40.1026145 81.3362644,39.852275 C80.9586034,39.4931737 80.2706233,39.3037782 79.3451262,39.3037782 M64.3788291,62.4119002 C63.1994347,62.4119002 62.1219632,62.2947 61.1764456,62.0649877 C59.5547783,61.6702575 58.2206793,60.975495 57.2105498,59.999452 C56.1976902,59.0215338 55.4532885,57.7642105 54.9964551,56.2584228 C54.5587324,54.8126415 54.3366859,53.1483992 54.3366859,51.3107006 L54.3366859,45.3194282 C54.3366859,43.4854801 54.5569123,41.7677945 54.990995,40.2132515 C55.437818,38.6174541 56.1594691,37.1941753 57.1377477,35.983732 C58.1242165,34.7648503 59.4237344,33.7503656 61.0017205,32.9693438 C62.5724264,32.1920723 64.4734719,31.6754539 66.6529856,31.4335528 C70.8918894,30.9638145 75.1526338,30.5625212 79.3160054,30.2437367 C79.8774918,30.1996695 80.4271478,30.1781046 80.9504131,30.1781046 C82.4610572,30.1781046 83.821547,30.3618745 84.9936612,30.7237886 C86.5943979,31.2160293 87.9193966,32.0017392 88.9331662,33.0584159 C89.9387456,34.1066541 90.6795072,35.4174208 91.1363406,36.9541493 C91.5749734,38.4346218 91.7988399,40.1185538 91.7988399,41.9571899 L91.7988399,47.9484623 C91.7988399,49.7824105 91.5758834,51.4822817 91.1381606,53.0021334 C90.6867875,54.5632396 89.9542161,55.9340127 88.960467,57.0750735 C87.9721782,58.2095711 86.66629,59.1331084 85.0801137,59.8222453 C83.5403487,60.4888799 81.6438534,60.9126757 79.4424991,61.0833191 C75.3137085,61.3974156 71.0720746,61.7958961 66.8359009,62.266572 C65.9695556,62.3640825 65.1423414,62.4119002 64.3788291,62.4119002" id="Fill-34" fill="#0B3656"></path>
                    <path d="M63.2015278,49.5367589 C63.2015278,50.5493684 63.2989006,51.3510175 63.4936463,51.9398311 C63.688392,52.5286447 63.9996211,52.9627541 64.4273336,53.2449721 C64.8559561,53.5281277 65.4147124,53.6903328 66.1017825,53.7334624 C66.7888525,53.7756545 67.6406374,53.7400256 68.653497,53.6331391 C72.6439635,53.2112185 74.6405618,53.026511 78.6373986,52.711477 C79.4964636,52.6439697 80.2053744,52.4967663 80.7650407,52.2689292 C81.324707,52.0429673 81.7615198,51.6988676 82.0736589,51.2375677 C82.385798,50.7762679 82.6005643,50.1696398 82.7179577,49.4158084 C82.8344411,48.6619769 82.8935929,47.7403148 82.8935929,46.6470717 L82.8935929,42.8122823 C82.8935929,41.0289646 82.5678033,39.8260222 81.9171343,39.2062677 C81.2664653,38.584638 80.1726134,38.3296105 78.6373986,38.4514986 C74.1564277,38.8049743 71.9177623,39.014997 67.4468017,39.5034873 C66.5886467,39.5963098 65.881556,39.7707037 65.3237097,40.0210432 C64.7649534,40.2713828 64.3299607,40.6361097 64.0187316,41.1124112 C63.7075025,41.5887126 63.4936463,42.2009663 63.3762529,42.9472969 C63.2597695,43.6936276 63.2024378,44.6115393 63.2024378,45.7019696 C63.2024378,47.2368229 63.2015278,48.0028432 63.2015278,49.5367589 M90.9427779,47.9484623 C90.9427779,49.7064648 90.7334718,51.3069502 90.3166796,52.7508562 C89.8998875,54.1956999 89.234658,55.4389592 88.3237214,56.4853223 C87.4118748,57.5326229 86.21883,58.3708385 84.748227,59.009345 C83.2767141,59.6459763 81.4866918,60.0397689 79.3790702,60.2029115 C75.1620071,60.5254463 70.949494,60.9239269 66.7442612,61.3899147 C64.6420998,61.6243151 62.8511675,61.5661838 61.3732844,61.2061449 C59.8954012,60.8479812 58.7023564,60.2319771 57.7959699,59.3571951 C56.8886734,58.4805379 56.2279941,57.3619795 55.813932,55.9958944 C55.3998699,54.6298093 55.1923839,53.0687031 55.1923839,51.3107006 C55.1923839,48.9141917 55.1932939,47.7159372 55.1932939,45.3194282 C55.1932939,43.5614258 55.3998699,41.9403131 55.813932,40.4570278 C56.2279941,38.9746802 56.8886734,37.6704767 57.7959699,36.5491056 C58.7023564,35.4267968 59.8944912,34.4957587 61.3723743,33.7653673 C62.8502575,33.0331006 64.6420998,32.5446104 66.7451713,32.3111476 C70.949494,31.8442222 75.1620071,31.4466792 79.3790702,31.1222692 C81.4866918,30.9610017 83.2776241,31.1147684 84.748227,31.5676298 C86.21883,32.0214288 87.4127848,32.7274426 88.3237214,33.6781703 C89.2355681,34.6288981 89.9007975,35.8074629 90.3175897,37.2119897 C90.7343818,38.6174541 90.9418679,40.2001251 90.9418679,41.9571899 C90.9418679,44.3546365 90.9427779,45.5510158 90.9427779,47.9484623" id="Fill-36" fill="#FFFFFF"></path>
                    <path d="M102.209089,48.0278772 C97.7008173,42.4650886 93.101543,36.8694839 88.5341196,31.3920171 L88.3275436,31.1435527 L88.3275436,29.6583922 L89.1411073,29.6180754 C92.8749464,29.4286799 94.6822591,29.3592974 98.3496662,29.2636621 L98.7664584,29.2533485 L99.0312762,29.5843217 C101.746795,32.9765633 104.504176,36.4513137 107.228796,39.914813 C109.836932,36.5225714 112.541531,33.033757 115.26797,29.5458801 L115.530968,29.2092812 L115.95231,29.2177196 C119.646108,29.2955405 121.444321,29.3546094 125.121738,29.5215024 L125.940762,29.5580689 L125.940762,31.0460422 L125.736006,31.2926313 C121.118531,36.8760471 116.491046,42.5504103 111.979134,48.1638293 L111.980044,59.9982331 L111.117339,59.9916699 C109.844212,59.9813563 108.823162,59.9757307 107.854894,59.9757307 C106.451633,59.9757307 105.155755,59.9860443 103.076344,60.0141723 L102.209089,60.0254236 L102.209089,48.0278772 Z" id="Fill-38" fill="#0B3656"></path>
                    <path d="M125.084609,30.4020038 L125.084609,30.7217259 C120.392512,36.3951514 115.737726,42.1032682 111.122981,47.8460763 C111.122981,52.3512506 111.123891,54.6033689 111.123891,59.1094808 C107.900577,59.083228 106.28801,59.0888536 103.064696,59.1329209 L103.064696,47.7082489 C98.4763419,42.0441993 93.8497668,36.4129659 89.1831505,30.8164236 L89.1831505,30.4985768 C92.8569278,30.3119941 94.6951815,30.2407364 98.3716889,30.1460387 C101.16274,33.6339156 103.940142,37.1349189 106.702982,40.6462358 C106.754854,40.6996791 106.800355,40.7465591 106.840396,40.786876 C106.878617,40.8262552 106.96325,40.8459449 107.093384,40.8459449 C107.203497,40.8450073 107.259008,40.8450073 107.368212,40.8450073 C107.524736,40.8440697 107.65487,40.7784376 107.759523,40.6452982 C110.470492,37.118042 113.196022,33.6029747 115.934292,30.1000962 C119.596239,30.1760419 121.425392,30.2360484 125.084609,30.4020038" id="Fill-40" fill="#FFFFFF"></path>
                    <path d="M131.78013,51.8505715 C134.984333,52.0530933 136.551399,52.1684183 139.761973,52.4393851 C140.596467,52.5097052 141.319028,52.5725245 141.931476,52.6287806 C142.553024,52.6850366 143.10268,52.7422303 143.578624,52.8012992 C143.888033,52.8397409 144.180152,52.8800577 144.45225,52.9213122 C144.337586,52.7047263 144.212913,52.4637627 144.080049,52.1937335 C143.869833,51.771813 143.623215,51.2655082 143.335647,50.6776322 C143.048079,50.0869434 142.694078,49.3434256 142.276376,48.4461411 C140.510015,44.6610446 139.611818,42.7455251 137.868207,39.0354367 L137.674372,39.0185599 C135.582221,43.1833849 133.438198,47.4644725 131.265055,51.8177554 L131.78013,51.8505715 Z M158.243702,63.3511892 C150.238199,62.3273285 142.08436,61.493801 134.007875,60.8759217 L133.461859,60.8337296 L130.871923,53.6892076 L130.871923,52.6062781 C129.660678,55.0346655 128.439422,57.4836802 127.214526,59.9476964 L126.962449,60.4530635 L126.410973,60.4258731 C122.719905,60.244916 120.897122,60.1792839 117.126882,60.087399 L116.290567,60.0677094 L116.290567,58.6659954 L116.3934,58.4709743 C121.691575,48.2933121 126.360011,39.399226 130.663527,31.2795987 C130.910144,30.792046 131.184972,30.4460711 131.494381,30.236986 C131.78741,30.0419649 132.166891,29.9482048 132.657395,29.9482048 C132.750218,29.9482048 132.849411,29.9510176 132.954064,29.9575808 C136.91996,30.2210468 138.847396,30.3738758 142.773251,30.7357899 C143.383878,30.7939212 143.839802,30.944875 144.168321,31.2017778 C144.46226,31.4296149 144.736178,31.7896538 145.007366,32.2997089 C149.714023,42.0385737 154.456172,51.9443316 159.117328,61.7685182 L159.20469,61.9513504 L159.20469,63.4730773 L158.243702,63.3511892 Z" id="Fill-42" fill="#0B3656"></path>
                    <path d="M126.452379,59.5454654 C122.73128,59.3626332 120.870276,59.2960635 117.146447,59.2069914 L117.146447,58.8882069 C121.874035,49.8094134 126.622554,40.7437463 131.415664,31.7024569 C131.597669,31.3405428 131.780585,31.0986416 131.96259,30.9758158 C132.142775,30.8548653 132.456734,30.8089228 132.899917,30.8379885 C136.822132,31.097704 138.781419,31.2524082 142.697263,31.6152599 C143.138626,31.6565144 143.458046,31.7530873 143.650971,31.9049787 C143.846627,32.0568702 144.047743,32.3297121 144.256139,32.7225671 C148.988277,42.5158128 153.685834,52.3268729 158.34881,62.1557475 L158.34881,62.4754695 C150.268685,61.4422329 142.191289,60.6190189 134.071121,59.9955141 C133.134704,57.4067968 132.66513,56.112907 131.727803,53.5298154 L131.727803,52.7309791 C134.915626,52.9316258 136.508173,53.0497635 139.692356,53.3179175 C140.52412,53.3891752 141.245771,53.4519945 141.858219,53.507313 C142.468847,53.5616939 143.008492,53.6188875 143.476246,53.6760812 C143.944,53.7351501 144.360792,53.7951566 144.724803,53.8579759 C145.087903,53.9198576 145.439173,53.9817392 145.776793,54.0417457 C145.824115,53.9348592 145.846865,53.8804783 145.893277,53.7735918 C145.737662,53.4660585 145.575677,53.1613381 145.406413,52.8659937 C145.237148,52.5697117 145.050592,52.2124856 144.841286,51.7915026 C144.63289,51.3714572 144.386273,50.8670277 144.101434,50.2819645 C143.813866,49.695026 143.463506,48.9561962 143.048534,48.0645374 C141.254871,44.2222472 140.356675,42.3057901 138.562103,38.4850648 C138.45745,38.2909813 138.273624,38.1831571 138.014267,38.1615923 C137.826801,38.1475283 137.733068,38.1390899 137.545603,38.1240883 C137.311726,38.1062738 137.142461,38.1869075 137.038718,38.3650518 C133.495985,45.4176889 129.967812,52.4768891 126.452379,59.5454654" id="Fill-44" fill="#FFFFFF"></path>
                    <path d="M191.381501,69.3537128 C181.912675,67.2656746 172.219072,65.4514161 162.57279,63.96063 C161.596331,63.8162394 160.87013,63.4280725 160.421487,62.8064428 C159.999235,62.2232548 159.785378,61.4656729 159.785378,60.5552621 L159.785378,32.7019399 L160.758197,32.8397673 C164.004262,33.2991919 165.576788,33.5382802 168.767341,34.058649 L169.488992,34.1767867 L169.488992,55.4631493 C169.488992,55.5578471 169.499002,55.6197287 169.508102,55.6553576 C169.543593,55.6675464 169.604565,55.687236 169.701028,55.7022377 C177.023102,56.9670618 184.436178,58.4259695 191.740962,60.0395813 L192.417111,60.1895975 L192.417111,69.5824875 L191.381501,69.3537128 Z" id="Fill-46" fill="#0B3656"></path>
                    <path d="M168.633476,34.9307119 L168.633476,55.4623055 C168.633476,55.7810899 168.698088,56.0333047 168.828222,56.2133241 C168.956535,56.3942812 169.202242,56.5133566 169.564433,56.573363 C176.933828,57.845688 184.254082,59.2877188 191.560685,60.9013307 L191.560685,68.4921509 C181.983566,66.3797352 172.385515,64.5861039 162.700103,63.0887546 C161.948421,62.97718 161.417875,62.7109012 161.107556,62.2796046 C160.796327,61.8492456 160.641622,61.274496 160.641622,60.5553558 L160.641622,33.7137054 C163.841276,34.1665669 165.440193,34.408468 168.633476,34.9307119" id="Fill-48" fill="#FFFFFF"></path>
                </g>
            </g>
        </g>
    </g>
</svg>